<?xml version="1.0" encoding="UTF-8" standalone="no"?>
<svg
   xmlns:dc="http://purl.org/dc/elements/1.1/"
   xmlns:cc="http://creativecommons.org/ns#"
   xmlns:rdf="http://www.w3.org/1999/02/22-rdf-syntax-ns#"
   xmlns:svg="http://www.w3.org/2000/svg"
   xmlns="http://www.w3.org/2000/svg"
   xmlns:sodipodi="http://sodipodi.sourceforge.net/DTD/sodipodi-0.dtd"
   xmlns:inkscape="http://www.inkscape.org/namespaces/inkscape"
   version="1.2"
   id="Layer_1"
   x="0px"
   y="0px"
   viewBox="0 0 172.238 180.994"
   xml:space="preserve"
   sodipodi:docname="oshw-logo.svg"
   inkscape:version="1.0.1 (3bc2e813f5, 2020-09-07)"><metadata
   id="metadata43"><rdf:RDF><cc:Work
       rdf:about=""><dc:format>image/svg+xml</dc:format><dc:type
         rdf:resource="http://purl.org/dc/dcmitype/StillImage" /></cc:Work></rdf:RDF></metadata><defs
   id="defs41" /><sodipodi:namedview
   pagecolor="#ffffff"
   bordercolor="#666666"
   borderopacity="1"
   objecttolerance="10"
   gridtolerance="10"
   guidetolerance="10"
   inkscape:pageopacity="0"
   inkscape:pageshadow="2"
   inkscape:window-width="3840"
   inkscape:window-height="2050"
   id="namedview39"
   showgrid="false"
   inkscape:zoom="5.5692453"
   inkscape:cx="86.119003"
   inkscape:cy="90.497002"
   inkscape:window-x="-12"
   inkscape:window-y="-12"
   inkscape:window-maximized="1"
   inkscape:current-layer="Layer_1"
   inkscape:document-rotation="0" />
<path
   fill="#0099b0"
   d="m 169.74448,84.174073 -20.69395,-3.848252 c -0.50354,-0.09441 -1.05491,-0.567734 -1.22485,-1.053643 l -6.34326,-14.798839 c -0.23666,-0.456956 -0.19135,-1.174491 0.10071,-1.599977 l 12.0571,-17.573307 c 0.28827,-0.422968 0.23162,-1.066232 -0.13218,-1.430034 L 138.44863,28.810603 c -0.3638,-0.363803 -1.00581,-0.422968 -1.42878,-0.132177 l -17.88172,12.271103 c -0.42296,0.29079 -1.14805,0.342403 -1.60752,0.115813 l -14.34567,-5.872456 c -0.48717,-0.161131 -0.96174,-0.706206 -1.05741,-1.210997 L 98.14332,12.577953 c -0.09315,-0.504791 -0.59039,-0.917689 -1.103995,-0.917689 H 75.739874 c -0.512344,0 -1.009583,0.412898 -1.102737,0.917689 l -3.982948,21.403936 c -0.09567,0.504791 -0.568992,1.049866 -1.057419,1.210997 l -14.346919,5.872456 c -0.460733,0.22659 -1.18582,0.174977 -1.607529,-0.115813 L 35.76186,28.678426 C 35.337633,28.387635 34.69437,28.4468 34.331826,28.810603 L 19.271149,43.870021 c -0.362544,0.363802 -0.422969,1.007066 -0.132177,1.430034 l 12.05836,17.573307 c 0.289531,0.425486 0.334849,1.143021 0.09945,1.599977 l -6.344517,14.798839 c -0.168684,0.485909 -0.718794,0.959231 -1.224845,1.053643 L 3.0347226,84.174073 c -0.5060504,0.09564 -0.9176891,0.591651 -0.9176891,1.105256 l 0.00126,21.298191 c 0,0.5136 0.4128975,1.01336 0.9176891,1.10526 l 20.1853844,3.75635 c 0.504793,0.0919 1.044832,0.57151 1.198409,1.0612 l 6.301718,15.7417 c 0.225331,0.462 0.17246,1.18456 -0.119589,1.60754 l -11.46545,16.70848 c -0.289532,0.42296 -0.230366,1.0675 0.132177,1.4313 l 15.061936,15.05941 c 0.362544,0.36128 1.005807,0.42045 1.430033,0.13218 l 16.412664,-11.2653 c 0.422967,-0.28953 1.131691,-0.31219 1.573541,-0.0542 l 7.238289,3.86462 c 0.458215,0.23414 0.993219,0.0365 1.189597,-0.43807 l 14.924723,-36.06176 c 0.197637,-0.47458 0,-1.08008 -0.438074,-1.34821 l -1.81146,-1.10903 c -0.33485,-0.20393 -0.789288,-0.55515 -1.145538,-0.87741 -6.534602,-4.18436 -10.870023,-11.50447 -10.870023,-19.840456 0,-13.00878 10.546502,-23.554023 23.554026,-23.554023 13.00751,0 23.552754,10.545243 23.552754,23.554023 0,8.335986 -4.33416,15.656096 -10.870024,19.840456 -0.353725,0.32226 -0.809427,0.67348 -1.143016,0.87741 l -1.811455,1.10903 c -0.435559,0.26813 -0.634452,0.87363 -0.438078,1.34821 l 14.923463,36.06305 c 0.19638,0.47458 0.73013,0.67095 1.18959,0.43807 l 7.23829,-3.86462 c 0.44311,-0.25806 1.15058,-0.23665 1.57355,0.0542 l 16.41392,11.2653 c 0.42296,0.28827 1.06749,0.2291 1.42878,-0.13218 l 15.06193,-15.05942 c 0.3638,-0.3638 0.42296,-1.00833 0.13218,-1.43129 l -11.46671,-16.70851 c -0.28954,-0.42298 -0.34367,-1.14554 -0.11833,-1.60754 l 6.30171,-15.7417 c 0.15485,-0.48969 0.69111,-0.9693 1.19715,-1.0612 l 20.18539,-3.75636 c 0.50353,-0.0919 0.91769,-0.59165 0.91769,-1.10526 l 0.003,-21.298182 c 9.7e-4,-0.514864 -0.41163,-1.010843 -0.91517,-1.106515"
   id="path2"
   style="stroke-width:1.25884" />

















</svg>
